<svg width="33" height="33" viewBox="0 0 33 33" fill="none" xmlns="http://www.w3.org/2000/svg">
<circle cx="16.5" cy="16.5" r="16" fill="white" stroke="black"/>
<path d="M24.4167 25.875L17.8542 19.3125C17.3333 19.7292 16.7344 20.059 16.0573 20.3021C15.3802 20.5451 14.6597 20.6667 13.8958 20.6667C12.0035 20.6667 10.4021 20.0111 9.09167 18.7C7.78125 17.3889 7.12569 15.7875 7.125 13.8958C7.12431 12.0042 7.77986 10.4028 9.09167 9.09167C10.4035 7.78056 12.0049 7.125 13.8958 7.125C15.7868 7.125 17.3885 7.78056 18.701 9.09167C20.0135 10.4028 20.6688 12.0042 20.6667 13.8958C20.6667 14.6597 20.5451 15.3802 20.3021 16.0573C20.059 16.7344 19.7292 17.3333 19.3125 17.8542L25.875 24.4167L24.4167 25.875ZM13.8958 18.5833C15.1979 18.5833 16.3049 18.1278 17.2167 17.2167C18.1285 16.3056 18.584 15.1986 18.5833 13.8958C18.5826 12.5931 18.1271 11.4865 17.2167 10.576C16.3063 9.66563 15.1993 9.20972 13.8958 9.20833C12.5924 9.20694 11.4858 9.66285 10.576 10.576C9.66632 11.4892 9.21042 12.5958 9.20833 13.8958C9.20625 15.1958 9.66215 16.3028 10.576 17.2167C11.4899 18.1306 12.5965 18.5861 13.8958 18.5833Z" fill="black"/>
</svg>
