<svg width="368" height="364" viewBox="0 0 368 364" fill="none" xmlns="http://www.w3.org/2000/svg">
<path d="M355.611 146.493C361.661 133.928 364.792 120.158 364.769 106.212C364.769 54.8559 323.158 13.245 271.802 13.245C259.767 13.245 248.258 15.5653 237.677 19.7418C224.158 7.95464 206.431 0.684326 187.187 0.684326C163.675 0.684326 142.637 11.2031 128.716 27.6C117.887 21.7218 105.512 18.3187 92.5187 18.3187C51.0625 18.6281 17.3406 52.0406 17.3406 93.4968C17.3406 108.966 21.9812 123.506 30.3344 135.572C14.8656 147.947 4.0375 166.2 1.87187 187.547C-2.15 229.003 28.4781 266.438 70.5531 270.459C80.4531 271.387 89.7344 270.459 98.7062 267.984C102.109 301.087 129.953 326.766 163.984 326.766C185.641 326.766 204.822 316.247 216.578 300.159C227.716 308.822 241.637 314.391 257.106 314.391C291.137 314.391 319.291 288.094 321.766 254.991C348.062 242.925 366.625 216.319 366.625 185.381C366.625 171.181 362.51 157.785 355.611 146.493Z" fill="white" stroke="black" stroke-width="1.1" stroke-miterlimit="10"/>
<path d="M32.1456 308.71C30.6928 320.165 40.2812 330.347 53.3562 331.62C66.4313 332.893 78.0536 324.492 79.2158 313.038C80.6686 301.583 71.0802 291.4 58.0052 290.128C44.9301 288.855 33.3078 297.255 32.1456 308.71ZM81.5403 347.657C80.6686 355.294 87.0609 362.167 95.7776 362.93C104.494 363.694 112.049 358.094 112.92 350.457C113.792 342.82 107.4 335.947 98.6831 335.184C90.257 334.42 82.412 340.02 81.5403 347.657Z" fill="white" stroke="black" stroke-width="1.1" stroke-miterlimit="10"/>
</svg>
